
        <svg xmlns="http://www.w3.org/2000/svg" xmlns:xlink="http://www.w3.org/1999/xlink" version="1.1" width="3162.306989780665" height="837.0942008424631" viewBox="0 0 3162.306989780665 837.0942008424631">
			
			<g transform="scale(8.115349489033267) translate(10, 10)">
				<defs id="SvgjsDefs1358"/><g id="SvgjsG1359" featureKey="symbolFeature-0" transform="matrix(1.4392698164534499,0,0,1.4392698164534499,-17.236953128065622,-30.411772758967412)" fill="#000"><path xmlns="http://www.w3.org/2000/svg" d="M55.739,48.002c-0.297-0.289-0.771-0.283-1.061,0.013l-9.307,9.529l9.307,9.53c0.146,0.15,0.341,0.226,0.536,0.226  c0.189,0,0.378-0.071,0.524-0.213c0.296-0.29,0.302-0.764,0.012-1.061l-8.283-8.482l8.283-8.481  C56.041,48.767,56.035,48.292,55.739,48.002z"/><path xmlns="http://www.w3.org/2000/svg" d="M69.011,48.015c-0.288-0.296-0.763-0.302-1.061-0.013c-0.296,0.29-0.302,0.765-0.012,1.061l8.285,8.481l-8.285,8.482  c-0.29,0.296-0.284,0.771,0.012,1.061c0.146,0.143,0.335,0.213,0.524,0.213c0.194,0,0.39-0.076,0.536-0.226l9.311-9.53  L69.011,48.015z"/><path xmlns="http://www.w3.org/2000/svg" d="M65.095,48.07c-0.261-0.096-0.547,0.036-0.643,0.295l-6.741,18.219c-0.096,0.259,0.036,0.546,0.295,0.642  c0.058,0.021,0.116,0.031,0.174,0.031c0.203,0,0.395-0.125,0.469-0.327l6.741-18.219C65.485,48.454,65.354,48.166,65.095,48.07z"/><path xmlns="http://www.w3.org/2000/svg" d="M86.749,26.575H44.48l-0.897-3.086c-0.478-1.565-1.334-2.359-2.545-2.359H21.095c-1.422,0-2.579,1.157-2.579,2.579v15.866  h1.5V23.708c0-0.595,0.484-1.079,1.079-1.079h19.943c0.231,0,0.714,0,1.108,1.288l1.052,3.617c0.093,0.32,0.386,0.541,0.72,0.541  h42.831c0.595,0,1.079,0.484,1.079,1.078v32.659l-2.427-23.414c-0.009-0.087-0.033-0.172-0.071-0.25  c-0.154-0.318-0.367-0.615-0.613-0.858c-0.508-0.502-1.154-0.774-1.88-0.786l-43.187-0.02c-0.334,0-0.627,0.22-0.721,0.541  l-0.855,2.947c-0.542,1.755-1.396,1.958-1.991,1.958l-23.357,0.03c-0.214,0-0.417,0.092-0.56,0.252  c-0.143,0.16-0.209,0.373-0.185,0.585l3.918,33.526c0,1.422,1.157,2.579,2.579,2.579h68.271c1.422,0,2.579-1.157,2.575-2.656  l-0.113-1.09h0.117V29.153C89.328,27.732,88.171,26.575,86.749,26.575z M86.749,77.403H18.479c-0.595,0-1.079-0.484-1.084-1.166  L13.569,43.46l22.515-0.029c1.137,0,2.654-0.523,3.428-3.028l0.702-2.418l42.611,0.02c0.329,0.005,0.603,0.12,0.838,0.353  c0.098,0.097,0.188,0.214,0.261,0.34l3.904,37.627C87.828,76.919,87.344,77.403,86.749,77.403z"/></g><g id="SvgjsG1360" featureKey="nameFeature-0" transform="matrix(0.89084377438302,0,0,0.89084377438302,128.66866132589814,1.9689182401586205)" fill="#000"><path d="M16.055 40.37109 c-7.5391 0 -13.438 -5.2344 -13.438 -14.004 c0 -8.75 5.8984 -13.984 13.438 -13.984 c5.1758 0 9.5703 2.5 11.758 6.875 l-2.4609 1.0938 c-1.8164 -3.4375 -5.2734 -5.3125 -9.2969 -5.3125 c-5.957 0 -10.742 4.0625 -10.742 11.328 c0 7.2852 4.7852 11.348 10.742 11.348 c4.0234 0 7.4805 -1.875 9.2969 -5.3125 l2.4609 1.0938 c-2.1875 4.375 -6.582 6.875 -11.758 6.875 z M52.2030625 40 l-6.9727 -12.402 l-5.1953 0 l0 12.402 l-2.7148 0 l0 -27.246 l8.75 0 c5.3906 0 8.0078 3.3789 8.0078 7.5391 c0 3.75 -2.207 6.6016 -6.1523 7.1875 l7.4023 12.52 l-3.125 0 z M40.0351625 15.195 l0 10.117 l5.7227 0 c3.8867 0 5.7031 -2.0508 5.7031 -5.0195 c0 -2.9297 -1.8164 -5.0977 -5.7031 -5.0977 l-5.7227 0 z M79.1328125 15.254000000000001 l-11.406 0 l0 9.9023 l10.02 0 l0 2.4805 l-10.02 0 l0 9.8633 l11.406 0 l0 2.5 l-14.219 0 l0 -27.246 l14.219 0 l0 2.5 z M106.39465625 40 l-2.4609 -6.8359 l-12.637 0 l-2.4609 6.8359 l-2.8711 0 l10.039 -27.246 l3.2031 0 l10.039 27.246 l-2.8516 0 z M92.19535625 30.6836 l10.84 0 l-5.4297 -15.078 z M131.95684375 12.754000000000001 l0 2.5 l-7.168 0 l0 24.746 l-2.6953 0 l0 -24.746 l-7.168 0 l0 -2.5 l17.031 0 z M155.01953125 15.254000000000001 l-11.406 0 l0 9.9023 l10.02 0 l0 2.4805 l-10.02 0 l0 9.8633 l11.406 0 l0 2.5 l-14.219 0 l0 -27.246 l14.219 0 l0 2.5 z M167.124975 40.37109 c-1.8359 0 -3.8086 -0.52734 -5.5273 -1.5234 l1.2109 -2.3242 c1.2305 0.82031 2.793 1.2891 4.2188 1.2891 c3.2422 0 5.1953 -2.4023 5.1953 -6.0547 l0 -19.004 l2.7148 0 l0 19.434 c0 5 -3.1055 8.1836 -7.8125 8.1836 z M194.91415625 40.37109 c-5.6055 0 -9.5117 -2.6758 -10.488 -6.9922 l2.7148 -0.66406 c0.74219 3.2617 3.8281 5.2148 7.8516 5.2148 c3.2813 0 6.6797 -1.2891 6.6016 -5.1563 c-0.058594 -3.6719 -3.8867 -4.6094 -7.832 -5.625 c-4.3555 -1.1133 -8.5742 -2.3438 -8.5742 -7.3633 c0 -5.0391 4.2188 -7.4023 8.8477 -7.4023 c4.8047 0 8.8086 2.0703 9.8047 6.4258 l-2.6367 0.68359 c-0.78125 -3.2031 -3.75 -4.668 -7.1094 -4.668 c-2.9883 0 -6.1719 1.3477 -6.1719 4.9805 c0 3.2813 3.2422 4.1992 6.9141 5.1172 c4.4922 1.1133 9.5117 2.3047 9.5117 7.8125 c0 5.3711 -4.4531 7.6367 -9.4336 7.6367 z M225.96515625 40.37109 c-7.5391 0 -13.438 -5.2344 -13.438 -14.004 c0 -8.75 5.8984 -13.984 13.438 -13.984 c7.4805 0 13.418 5.2344 13.418 13.984 c0 8.7695 -5.9375 14.004 -13.418 14.004 z M225.96515625 37.7539 c5.9375 0 10.684 -4.082 10.684 -11.387 c0 -7.2656 -4.7461 -11.328 -10.684 -11.328 c-5.957 0 -10.742 4.0625 -10.742 11.328 c0 7.3047 4.7852 11.387 10.742 11.387 z M267.8555625 12.754000000000001 l2.6758 0 l0 27.246 l-2.6563 0 l-15.605 -22.91 l0 22.91 l-2.6367 0 l0 -27.246 l2.6367 0 l15.586 22.813 l0 -22.813 z"/></g><g id="SvgjsG1361" featureKey="sloganFeature-0" transform="matrix(0.7586650509214756,0,0,0.7586650509214756,130.72581853481464,53.53987494936493)" fill="#000"><path d="M3.7305 20.18555 c-1.0352 0 -2.2266 -0.27344 -3.3691 -0.88867 l0.99609 -1.9434 c0.67383 0.45898 1.3867 0.70313 2.1289 0.70313 c1.3379 0 2.0605 -0.87891 2.0605 -2.5977 l0 -9.3848 l2.3438 0 l0 9.8145 c0 2.7441 -1.6797 4.2969 -4.1602 4.2969 z M20.85396015625 20.18555 c-2.9492 0 -5.1563 -1.4063 -5.6055 -3.8672 l2.4023 -0.55664 c0.25391 1.6016 1.5723 2.4805 3.291 2.4805 c1.3574 0 2.5879 -0.57617 2.5684 -2.041 c-0.019531 -1.5234 -1.709 -1.9629 -3.5352 -2.4805 c-2.1094 -0.61523 -4.2773 -1.3184 -4.2773 -3.877 c0 -2.5977 2.1289 -3.9648 4.7754 -3.9648 c2.4414 0 4.7559 1.0254 5.293 3.5254 l-2.2559 0.56641 c-0.3125 -1.4844 -1.4648 -2.1387 -2.9199 -2.1387 c-1.2988 0 -2.5293 0.55664 -2.5293 1.9727 c0 1.2891 1.4746 1.6895 3.1641 2.1582 c2.1777 0.60547 4.6973 1.3477 4.6973 4.1406 c0 2.8809 -2.4121 4.082 -5.0684 4.082 z M39.7060140625 20.18555 c-4.0039 0 -7.0313 -2.7441 -7.0313 -7.1582 c0 -4.4043 3.0273 -7.1484 7.0313 -7.1484 c3.9941 0 7.0215 2.7441 7.0215 7.1484 c0 4.4141 -3.0273 7.1582 -7.0215 7.1582 z M39.7060140625 18.0176 c2.6367 0 4.6973 -1.8262 4.6973 -4.9902 c0 -3.1348 -2.0605 -4.9707 -4.6973 -4.9707 s-4.6973 1.8359 -4.6973 4.9707 c0 3.1641 2.0605 4.9902 4.6973 4.9902 z M63.90988671875 6.074 l2.334 0 l0 13.926 l-2.6172 0 l-6.8359 -10.625 l0 10.625 l-2.3145 0 l0 -13.926 l2.5879 0 l6.8457 10.557 l0 -10.557 z M76.18943125 23.5645 l-1.6211 0 l1.2109 -6.2207 l2.3242 0 z M100.5048390625 20.18555 c-2.9492 0 -5.1563 -1.4063 -5.6055 -3.8672 l2.4023 -0.55664 c0.25391 1.6016 1.5723 2.4805 3.291 2.4805 c1.3574 0 2.5879 -0.57617 2.5684 -2.041 c-0.019531 -1.5234 -1.709 -1.9629 -3.5352 -2.4805 c-2.1094 -0.61523 -4.2773 -1.3184 -4.2773 -3.877 c0 -2.5977 2.1289 -3.9648 4.7754 -3.9648 c2.4414 0 4.7559 1.0254 5.293 3.5254 l-2.2559 0.56641 c-0.3125 -1.4844 -1.4648 -2.1387 -2.9199 -2.1387 c-1.2988 0 -2.5293 0.55664 -2.5293 1.9727 c0 1.2891 1.4746 1.6895 3.1641 2.1582 c2.1777 0.60547 4.6973 1.3477 4.6973 4.1406 c0 2.8809 -2.4121 4.082 -5.0684 4.082 z M113.29249296875 20 l0 -13.926 l2.334 0 l0 13.926 l-2.334 0 z M139.69384374999998 20 l-2.3145 0 l-0.91797 -10.996 l-3.9941 10.996 l-1.4648 0 l-3.9746 -10.977 l-0.92773 10.977 l-2.3242 0 l1.1133 -13.926 l3.252 0 l3.584 9.8438 l3.6133 -9.8438 l3.252 0 z M153.37939765625 6.074 c2.6172 0 4.2871 1.9629 4.2871 4.3848 c0 2.4609 -1.6699 4.3457 -4.2871 4.3457 l-3.2031 0 l0 5.1953 l-2.334 0 l0 -13.926 l5.5371 0 z M153.00829765625 12.8125 c1.5625 0 2.3828 -0.95703 2.3828 -2.3828 c0 -1.377 -0.82031 -2.3828 -2.3828 -2.3828 l-2.832 0 l0 4.7656 l2.832 0 z M167.4853796875 17.9102 l4.5996 0 l0 2.0898 l-6.9336 0 l0 -13.926 l2.334 0 l0 11.836 z M179.28663359375 20 l0 -13.926 l2.334 0 l0 13.926 l-2.334 0 z M198.206984375 8.154 l-5.5176 0 l0 3.8477 l4.7852 0 l0 2.0703 l-4.7852 0 l0 5.9277 l-2.3633 0 l0 -13.926 l7.8809 0 l0 2.0801 z M205.64307890625 20 l0 -13.926 l2.334 0 l0 13.926 l-2.334 0 z M224.4560296875 8.154 l-5.4102 0 l0 3.8574 l4.7852 0 l0 2.0605 l-4.7852 0 l0 3.8379 l5.4102 0 l0 2.0898 l-7.7734 0 l0 -13.926 l7.7734 0 l0 2.0801 z M232.36085234375 20 l0 -13.926 l4.7656 0 c4.3555 0 6.543 2.832 6.543 6.9531 c0 4.1309 -2.1875 6.9727 -6.543 6.9727 l-4.7656 0 z M234.69485234375 17.9102 l2.334 0 c2.8516 0 4.1895 -1.8457 4.1895 -4.8828 c0 -3.0176 -1.3379 -4.873 -4.1895 -4.873 l-2.334 0 l0 9.7559 z M252.687509375 20.19531 c-0.74219 0 -1.377 -0.61523 -1.377 -1.3672 s0.63477 -1.377 1.377 -1.377 c0.75195 0 1.377 0.625 1.377 1.377 s-0.625 1.3672 -1.377 1.3672 z"/></g>
			</g>
		</svg>
	